<svg width="60" height="61" viewBox="0 0 60 61" fill="none" xmlns="http://www.w3.org/2000/svg">
<path fill-rule="evenodd" clip-rule="evenodd" d="M8.1072 0.182809C5.19021 1.15035 2.68956 3.34692 1.34305 6.12462C0.132609 8.62156 -0.00701121 9.35026 0.000257166 13.1394C0.00566619 15.9188 0.0666866 16.7121 0.390214 18.2001C4.23366 35.8807 24.0516 55.6566 41.9408 59.6626C44.1942 60.1672 49.5772 60.2098 51.2949 59.7366C55.0222 58.7098 57.7634 56.4468 59.3798 53.0619C59.9723 51.8214 60 51.6836 60 49.9884C60 48.424 59.9473 48.101 59.5546 47.2636C59.3095 46.7411 58.8181 45.9915 58.4623 45.5978C58.1067 45.204 55.5433 43.2936 52.7663 41.3524C47.339 37.5588 46.5322 37.142 44.6181 37.142C42.8865 37.142 40.7322 38.0862 39.6639 39.3135C39.4491 39.5601 38.7779 40.4655 38.1722 41.3255C37.5666 42.1854 37.0374 42.8891 36.9964 42.8891C36.8719 42.8891 34.5544 41.1925 33.2084 40.1158C28.6251 36.4495 23.0532 30.8408 19.5065 26.3239C18.7254 25.329 17.1504 23.1375 17.1504 23.0456C17.1504 23.006 17.9934 22.3816 19.0238 21.6581C21.1723 20.1495 22.0332 19.1137 22.5625 17.4002C22.9888 16.0199 22.9871 14.8174 22.5571 13.4249C22.2802 12.5286 21.5574 11.3797 18.6871 7.27319C16.7459 4.49617 14.8355 1.9328 14.4417 1.57715C13.2652 0.514112 12.0779 0.0636415 10.3046 0.00701585C9.36412 -0.0229028 8.52521 0.044203 8.1072 0.182809Z" fill="white"/>
</svg>
